<svg xmlns="http://www.w3.org/2000/svg" xmlns:xlink="http://www.w3.org/1999/xlink" width="640" zoomAndPan="magnify" viewBox="0 0 480 116.249996" height="155" preserveAspectRatio="xMidYMid meet" version="1.0"><defs><clipPath id="ad10e82075"><path d="M 169.664062 11.542969 L 185.609375 11.542969 L 185.609375 26.492188 L 169.664062 26.492188 Z M 169.664062 11.542969 " clip-rule="nonzero"/></clipPath><clipPath id="a23c1880d1"><path d="M 0.664062 0.542969 L 16.609375 0.542969 L 16.609375 15.492188 L 0.664062 15.492188 Z M 0.664062 0.542969 " clip-rule="nonzero"/></clipPath><clipPath id="ac3d978f34"><rect x="0" width="17" y="0" height="16"/></clipPath><clipPath id="7d3e6ba36d"><path d="M 212.914062 11.542969 L 228.859375 11.542969 L 228.859375 26.492188 L 212.914062 26.492188 Z M 212.914062 11.542969 " clip-rule="nonzero"/></clipPath><clipPath id="f79db53734"><path d="M 0.914062 0.542969 L 16.859375 0.542969 L 16.859375 15.492188 L 0.914062 15.492188 Z M 0.914062 0.542969 " clip-rule="nonzero"/></clipPath><clipPath id="c6b05005bd"><rect x="0" width="17" y="0" height="16"/></clipPath><clipPath id="d0c61d1ca2"><path d="M 76.933594 57.753906 L 138.113281 57.753906 L 138.113281 69.675781 L 76.933594 69.675781 Z M 76.933594 57.753906 " clip-rule="nonzero"/></clipPath><clipPath id="d9f5f4aaf4"><path d="M 0.933594 0.753906 L 62.113281 0.753906 L 62.113281 12.675781 L 0.933594 12.675781 Z M 0.933594 0.753906 " clip-rule="nonzero"/></clipPath><clipPath id="d5b279688a"><rect x="0" width="63" y="0" height="13"/></clipPath><clipPath id="4f1c443d25"><path d="M 1.539062 0 L 200 0 L 200 115.503906 L 1.539062 115.503906 Z M 1.539062 0 " clip-rule="nonzero"/></clipPath><clipPath id="0674a218c2"><path d="M 1.539062 0 L 173 0 L 173 115.503906 L 1.539062 115.503906 Z M 1.539062 0 " clip-rule="nonzero"/></clipPath><clipPath id="be638352ad"><path d="M 1.539062 0 L 226 0 L 226 115.503906 L 1.539062 115.503906 Z M 1.539062 0 " clip-rule="nonzero"/></clipPath><clipPath id="ac3818e141"><path d="M 84 0 L 316 0 L 316 115.503906 L 84 115.503906 Z M 84 0 " clip-rule="nonzero"/></clipPath><clipPath id="e419133dd0"><path d="M 169.667969 10.535156 L 185.613281 10.535156 L 185.613281 26.5 L 169.667969 26.5 Z M 169.667969 10.535156 " clip-rule="nonzero"/></clipPath><clipPath id="3020cf0d71"><path d="M 0.667969 0.535156 L 16.613281 0.535156 L 16.613281 16.5 L 0.667969 16.5 Z M 0.667969 0.535156 " clip-rule="nonzero"/></clipPath><clipPath id="4cd7bda31f"><rect x="0" width="17" y="0" height="17"/></clipPath><clipPath id="9de4643bda"><path d="M 212.914062 10.535156 L 228.863281 10.535156 L 228.863281 26.5 L 212.914062 26.5 Z M 212.914062 10.535156 " clip-rule="nonzero"/></clipPath><clipPath id="5367d3908b"><path d="M 0.914062 0.535156 L 16.863281 0.535156 L 16.863281 16.5 L 0.914062 16.5 Z M 0.914062 0.535156 " clip-rule="nonzero"/></clipPath><clipPath id="072b58b383"><rect x="0" width="17" y="0" height="17"/></clipPath><clipPath id="e1f96fe240"><path d="M 369.011719 93.175781 L 413.429688 93.175781 L 413.429688 105.101562 L 369.011719 105.101562 Z M 369.011719 93.175781 " clip-rule="nonzero"/></clipPath><clipPath id="a0d128af12"><path d="M 0.0117188 0.175781 L 44.429688 0.175781 L 44.429688 12.101562 L 0.0117188 12.101562 Z M 0.0117188 0.175781 " clip-rule="nonzero"/></clipPath><clipPath id="9d89fede0c"><rect x="0" width="45" y="0" height="13"/></clipPath><clipPath id="0d1c96d0eb"><path d="M 232 0 L 444 0 L 444 115.503906 L 232 115.503906 Z M 232 0 " clip-rule="nonzero"/></clipPath><clipPath id="45c33ebd71"><path d="M 292 0 L 473 0 L 473 115.503906 L 292 115.503906 Z M 292 0 " clip-rule="nonzero"/></clipPath><clipPath id="d38e2492a6"><path d="M 345 6 L 478.460938 6 L 478.460938 115.503906 L 345 115.503906 Z M 345 6 " clip-rule="nonzero"/></clipPath><clipPath id="9be56ff314"><path d="M 384.179688 51.789062 L 426.09375 51.789062 L 426.09375 63.714844 L 384.179688 63.714844 Z M 384.179688 51.789062 " clip-rule="nonzero"/></clipPath><clipPath id="c58707d555"><path d="M 0.179688 0.789062 L 42.09375 0.789062 L 42.09375 12.714844 L 0.179688 12.714844 Z M 0.179688 0.789062 " clip-rule="nonzero"/></clipPath><clipPath id="ab6d60173d"><rect x="0" width="43" y="0" height="13"/></clipPath><clipPath id="ffb843af48"><path d="M 354 0 L 478.460938 0 L 478.460938 115.503906 L 354 115.503906 Z M 354 0 " clip-rule="nonzero"/></clipPath><clipPath id="3059b9a99e"><path d="M 335 0 L 478.460938 0 L 478.460938 108 L 335 108 Z M 335 0 " clip-rule="nonzero"/></clipPath><clipPath id="3753dc425c"><path d="M 242.964844 10.535156 L 304.070312 10.535156 L 304.070312 22.460938 L 242.964844 22.460938 Z M 242.964844 10.535156 " clip-rule="nonzero"/></clipPath><clipPath id="1076ed40fa"><path d="M 0.964844 0.535156 L 62.070312 0.535156 L 62.070312 12.460938 L 0.964844 12.460938 Z M 0.964844 0.535156 " clip-rule="nonzero"/></clipPath><clipPath id="8d99a6cecd"><rect x="0" width="63" y="0" height="13"/></clipPath><clipPath id="ac8c0f6adf"><path d="M 199 0 L 408 0 L 408 115.503906 L 199 115.503906 Z M 199 0 " clip-rule="nonzero"/></clipPath></defs><g clip-path="url(#ad10e82075)"><g transform="matrix(1, 0, 0, 1, 169, 11)"><g clip-path="url(#ac3d978f34)"><g clip-path="url(#a23c1880d1)"><path fill="#000000" d="M 0.664062 15.492188 L 0.664062 0.542969 L 16.605469 0.542969 L 16.605469 15.492188 Z M 0.664062 15.492188 " fill-opacity="1" fill-rule="nonzero"/></g></g></g></g><g clip-path="url(#7d3e6ba36d)"><g transform="matrix(1, 0, 0, 1, 212, 11)"><g clip-path="url(#c6b05005bd)"><g clip-path="url(#f79db53734)"><path fill="#000000" d="M 0.914062 15.492188 L 0.914062 0.542969 L 16.855469 0.542969 L 16.855469 15.492188 Z M 0.914062 15.492188 " fill-opacity="1" fill-rule="nonzero"/></g></g></g></g><g clip-path="url(#d0c61d1ca2)"><g transform="matrix(1, 0, 0, 1, 76, 57)"><g clip-path="url(#d5b279688a)"><g clip-path="url(#d9f5f4aaf4)"><path fill="#ffffff" d="M 0.933594 0.753906 L 62.132812 0.753906 L 62.132812 12.675781 L 0.933594 12.675781 Z M 0.933594 0.753906 " fill-opacity="1" fill-rule="nonzero"/></g></g></g></g><g clip-path="url(#4f1c443d25)"><path stroke-linecap="butt" transform="matrix(0.745192, 0, 0, 0.745192, 51.380752, 63.713938)" fill="none" stroke-linejoin="miter" d="M 108.416483 0.00121581 L 108.416483 23.768153 C 108.416483 36.89396 97.775353 47.540332 84.649546 47.540332 L -0.00247634 47.540332 " stroke="#ffffff" stroke-width="16" stroke-opacity="1" stroke-miterlimit="4"/></g><g clip-path="url(#0674a218c2)"><path stroke-linecap="butt" transform="matrix(0.745192, 0, 0, 0.745192, 23.240341, 38.352094)" fill="none" stroke-linejoin="miter" d="M 8.001672 -0.000713725 L 8.001672 57.571468 C 8.001672 70.828324 18.747641 81.574292 31.999254 81.574292 L 109.936357 81.574292 " stroke="#ffffff" stroke-width="16" stroke-opacity="1" stroke-miterlimit="4"/></g><g clip-path="url(#be638352ad)"><path stroke-linecap="butt" transform="matrix(0.745192, 0, 0, 0.745192, 23.215687, 10.537018)" fill="none" stroke-linejoin="miter" d="M 180.310978 8.001937 L 31.948467 8.001937 C 18.723063 8.001937 7.998062 18.721696 7.998062 31.9471 L 7.998062 55.897505 " stroke="#ffffff" stroke-width="16" stroke-opacity="1" stroke-miterlimit="4"/></g><g clip-path="url(#ac3818e141)"><path stroke-linecap="butt" transform="matrix(0.745192, 0, 0, 0.745192, 145.613925, 10.537018)" fill="none" stroke-linejoin="miter" d="M 7.99833 8.112018 L 7.99833 94.897508 C 7.99833 108.154364 18.744299 118.900332 32.001155 118.900332 L 113.728177 118.900332 C 126.985033 118.900332 137.731001 108.154364 137.731001 94.897508 L 137.731001 -0.00249899 " stroke="#ffffff" stroke-width="16" stroke-opacity="1" stroke-miterlimit="4"/></g><g clip-path="url(#e419133dd0)"><g transform="matrix(1, 0, 0, 1, 169, 10)"><g clip-path="url(#4cd7bda31f)"><g clip-path="url(#3020cf0d71)"><path fill="#ffffff" d="M 0.667969 0.535156 L 16.613281 0.535156 L 16.613281 16.484375 L 0.667969 16.484375 Z M 0.667969 0.535156 " fill-opacity="1" fill-rule="nonzero"/></g></g></g></g><g clip-path="url(#9de4643bda)"><g transform="matrix(1, 0, 0, 1, 212, 10)"><g clip-path="url(#072b58b383)"><g clip-path="url(#5367d3908b)"><path fill="#ffffff" d="M 0.914062 0.535156 L 16.863281 0.535156 L 16.863281 16.484375 L 0.914062 16.484375 Z M 0.914062 0.535156 " fill-opacity="1" fill-rule="nonzero"/></g></g></g></g><g clip-path="url(#e1f96fe240)"><g transform="matrix(1, 0, 0, 1, 369, 93)"><g clip-path="url(#9d89fede0c)"><g clip-path="url(#a0d128af12)"><path fill="#ffffff" d="M 0.0117188 0.175781 L 44.445312 0.175781 L 44.445312 12.101562 L 0.0117188 12.101562 Z M 0.0117188 0.175781 " fill-opacity="1" fill-rule="nonzero"/></g></g></g></g><g clip-path="url(#0d1c96d0eb)"><path stroke-linecap="butt" transform="matrix(0.745192, 0, 0, 0.745192, 300.178981, 51.790862)" fill="none" stroke-linejoin="miter" d="M 0.000947594 8.002022 L 29.591676 8.002022 C 42.848531 8.002022 53.589258 18.742748 53.589258 31.999604 L 53.589258 39.537508 C 53.589258 52.794364 64.335226 63.540332 77.592082 63.540332 L 102.486036 63.540332 " stroke="#ffffff" stroke-width="16" stroke-opacity="1" stroke-miterlimit="4"/></g><g clip-path="url(#45c33ebd71)"><path stroke-linecap="butt" transform="matrix(0.745192, 0, 0, 0.745192, 353.958312, 34.640455)" fill="none" stroke-linejoin="miter" d="M 7.997476 0.000228327 L 7.997476 15.505875 C 7.997476 19.620794 9.63296 23.56273 12.542234 26.472004 C 15.451509 29.381279 19.393444 31.016763 23.508364 31.016763 L 69.155142 31.016763 " stroke="#ffffff" stroke-width="16" stroke-opacity="1" stroke-miterlimit="4"/></g><path stroke-linecap="butt" transform="matrix(0.745192, 0, 0, 0.745192, 353.958312, 10.545047)" fill="none" stroke-linejoin="miter" d="M 7.997476 42.823827 L 7.997476 25.410116 C 7.997476 15.796405 15.797476 8.001647 25.411187 8.001647 L 69.155142 8.001647 " stroke="#ffffff" stroke-width="16" stroke-opacity="1" stroke-miterlimit="4"/><g clip-path="url(#d38e2492a6)"><path stroke-linecap="butt" transform="matrix(0.745192, 0, 0, 0.745192, 412.996169, 67.887014)" fill="none" stroke-linejoin="miter" d="M 50.154741 7.998797 L 50.201919 7.998797 C 50.228128 7.998797 50.249096 8.019765 50.249096 8.045975 L 50.249096 24.966944 C 50.249096 34.339525 42.648289 41.940332 33.275708 41.940332 L -0.00010123 41.940332 " stroke="#ffffff" stroke-width="16" stroke-opacity="1" stroke-miterlimit="4"/></g><g clip-path="url(#9be56ff314)"><g transform="matrix(1, 0, 0, 1, 384, 51)"><g clip-path="url(#ab6d60173d)"><g clip-path="url(#c58707d555)"><path fill="#ffffff" d="M 0.179688 0.789062 L 42.09375 0.789062 L 42.09375 12.714844 L 0.179688 12.714844 Z M 0.179688 0.789062 " fill-opacity="1" fill-rule="nonzero"/></g></g></g></g><g clip-path="url(#ffb843af48)"><path stroke-linecap="butt" transform="matrix(0.745192, 0, 0, 0.745192, 422.369519, 51.790862)" fill="none" stroke-linejoin="miter" d="M 37.670664 45.670573 L 37.623487 45.670573 C 37.597277 45.670573 37.576309 45.649605 37.576309 45.623395 L 37.576309 26.78912 C 37.576309 21.804039 35.594857 17.028635 32.072276 13.500812 C 28.549696 9.978232 23.76905 8.002022 18.789211 8.002022 L 0.00211283 8.002022 " stroke="#ffffff" stroke-width="16" stroke-opacity="1" stroke-miterlimit="4"/></g><g clip-path="url(#3059b9a99e)"><path stroke-linecap="butt" transform="matrix(0.745192, 0, 0, 0.745192, 402.748023, 10.537018)" fill="none" stroke-linejoin="miter" d="M 63.907093 39.327746 L 63.907093 23.664841 C 63.907093 19.507986 62.255883 15.524115 59.320399 12.588631 C 56.379673 9.647905 52.395802 8.001937 48.244189 8.001937 L -0.00258893 8.001937 " stroke="#ffffff" stroke-width="16" stroke-opacity="1" stroke-miterlimit="4"/></g><path stroke-linecap="butt" transform="matrix(0.745192, 0, 0, 0.745192, 289.075557, 10.537018)" fill="none" stroke-linejoin="miter" d="M 68.489338 42.824117 L 68.489338 25.410406 C 68.489338 15.796696 60.694579 8.001937 51.080869 8.001937 L -0.00179606 8.001937 " stroke="#ffffff" stroke-width="16" stroke-opacity="1" stroke-miterlimit="4"/><g clip-path="url(#3753dc425c)"><g transform="matrix(1, 0, 0, 1, 242, 10)"><g clip-path="url(#8d99a6cecd)"><g clip-path="url(#1076ed40fa)"><path fill="#ffffff" d="M 0.964844 0.535156 L 62.070312 0.535156 L 62.070312 12.460938 L 0.964844 12.460938 Z M 0.964844 0.535156 " fill-opacity="1" fill-rule="nonzero"/></g></g></g></g><g clip-path="url(#ac8c0f6adf)"><path stroke-linecap="butt" transform="matrix(0.745192, 0, 0, 0.745192, 266.707273, 34.640455)" fill="none" stroke-linejoin="miter" d="M 98.511377 0.000228327 L 98.511377 15.505875 C 98.511377 19.620794 96.875893 23.56273 93.966618 26.472004 C 91.057344 29.381279 87.115408 31.016763 83.000488 31.016763 L -0.000323991 31.016763 " stroke="#ffffff" stroke-width="16" stroke-opacity="1" stroke-miterlimit="4"/></g></svg>